# xmcd
# 
# Track frame offsets:
#     187
#     17367
#     36527
#     52657
#     67272
#     84017
#     102010
#     122592
#     142787
#     160665
# 
# Disc length: 2426
# 
# Revision: 2
# Processed by: cddbd v1.5.2PL0 Copyright (c) Steve Scherf et al.
# Submitted via: fre:ac v1.1beta1pre5
# 
DISCID=6d09780a
DTITLE=Tulip - We believe in Magic Vol.2
DYEAR=1997
DGENRE=JPop
TTITLE0=シェア
TTITLE1=笑顔で
TTITLE2=ひとつの道
TTITLE3=魔法の黄色い靴
TTITLE4=心の旅
TTITLE5=青春の影
TTITLE6=千鳥橋渋滞
TTITLE7=VOLUME.10(FULL)
TTITLE8=私のアイドル
TTITLE9=再会の日
EXTD=
EXTT0=
EXTT1=
EXTT2=
EXTT3=
EXTT4=
EXTT5=
EXTT6=
EXTT7=
EXTT8=
EXTT9=
PLAYORDER=
